<svg width="255" height="160" viewBox="0 0 255 160" fill="none" xmlns="http://www.w3.org/2000/svg">
<rect width="255" height="160" rx="15" fill="#4BCF82"/>
<mask id="mask0_0_291" style="mask-type:luminance" maskUnits="userSpaceOnUse" x="0" y="0" width="255" height="160">
<rect width="255" height="160" rx="15" fill="white"/>
</mask>
<g mask="url(#mask0_0_291)">
<path fill-rule="evenodd" clip-rule="evenodd" d="M234.571 31.7925L234.571 32.0521C234.571 33.2166 234.117 34.3118 233.294 35.1354C232.472 35.9581 231.375 36.4124 230.211 36.4124L214.44 36.4114C212.094 36.4124 210.048 34.3666 210.048 32.0192L210.047 23.6141L197.997 23.6049L198.007 38.7742C198.008 39.201 197.797 39.6006 197.446 39.8418L179.349 52.2515C177.986 53.1008 176.391 53.2845 174.923 52.789C174.163 52.5322 173.484 52.1072 172.929 51.5524C172.414 51.0368 172.005 50.4089 171.736 49.7013C170.861 47.4088 171.81 44.768 173.992 43.4252L186.295 34.4515L186.547 23.1717L172.991 23.6142C172.632 23.6261 172.286 23.4889 172.034 23.2366L159.237 10.4393C158.238 9.44018 157.687 8.05893 157.724 6.64672C157.761 5.21432 158.37 3.89624 159.438 2.93643C161.48 1.09729 164.672 1.24899 166.705 3.28198L175.281 11.858L204.725 10.2225L202.592 8.08989L190.329 8.4373C189.118 8.49125 187.91 8.02414 187.035 7.15753L187.019 7.142C186.141 6.26359 185.681 5.08902 185.725 3.83483C185.806 1.48829 187.885 -0.420333 190.357 -0.421265L206.804 0.00473797C207.135 0.0138504 207.449 0.149087 207.684 0.384041L217.637 10.3376C218.523 11.2234 219.039 12.399 219.088 13.6495L219.602 26.5181C219.623 27.0218 220.035 27.4138 220.539 27.413L230.134 27.3627C232.586 27.3638 234.571 29.3537 234.571 31.7925ZM235.106 22.3221C232.082 25.3468 227.162 25.3468 224.137 22.3221C221.113 19.2974 221.113 14.3777 224.137 11.3528C227.162 8.32806 232.082 8.32816 235.106 11.3528C238.131 14.3776 238.131 19.2973 235.106 22.3221Z" fill="#29BA66"/>
</g>
</svg>
